<svg xmlns="http://www.w3.org/2000/svg" viewBox="0 0 33 32" class="w-8 h-8"><path d="M32.1877 19.8706C30.0505 28.442 21.3681 33.6585 12.7947 31.521C4.22477 29.384 -0.99229 20.7021 1.14594 12.1312C3.28216 3.55876 11.9646 -1.65819 20.5355 0.478793C29.1084 2.61577 34.325 11.2987 32.1877 19.8706Z" fill="#F7931A"></path><path d="M23.7218 13.7206C24.0403 11.5916 22.4192 10.4472 20.2024 9.68366L20.9215 6.79969L19.1658 6.36219L18.4658 9.17016C18.0042 9.05516 17.5301 8.94667 17.0591 8.83917L17.7642 6.01269L16.0095 5.5752L15.2899 8.45816C14.9079 8.37116 14.5328 8.28518 14.1688 8.19468L14.1708 8.18567L11.7495 7.58117L11.2825 9.45615C11.2825 9.45615 12.5851 9.75465 12.5576 9.77315C13.2687 9.95065 13.3972 10.4211 13.3757 10.7941L12.5566 14.0796C12.6056 14.0921 12.6691 14.1101 12.7391 14.1381C12.6806 14.1236 12.6181 14.1076 12.5536 14.0921L11.4055 18.6946C11.3185 18.9106 11.098 19.2346 10.6009 19.1116C10.6184 19.1371 9.32478 18.7931 9.32478 18.7931L8.45319 20.8026L10.7379 21.372C11.163 21.4785 11.5795 21.59 11.9896 21.695L11.263 24.612L13.0167 25.0495L13.7362 22.1635C14.2153 22.2935 14.6803 22.4135 15.1354 22.5265L14.4183 25.399L16.174 25.8365L16.9006 22.925C19.8944 23.4915 22.1456 23.263 23.0932 20.5555C23.8568 18.3756 23.0552 17.1181 21.4801 16.2981C22.6272 16.0336 23.4913 15.2791 23.7218 13.7206ZM19.7104 19.3451C19.1678 21.525 15.4969 20.3465 14.3068 20.051L15.2709 16.1866C16.461 16.4836 20.2774 17.0716 19.7104 19.3451ZM20.2534 13.6891C19.7584 15.6721 16.7031 14.6646 15.712 14.4176L16.5861 10.9127C17.5772 11.1596 20.769 11.6206 20.2534 13.6891Z" fill="white"></path></svg>