<svg slot="icon" width="24" height="24" viewBox="0 0 24 24" fill="none" xmlns="http://www.w3.org/2000/svg"><path d="M6.76363 7.63605H5.8909V5.01787C5.8909 4.78641 5.79895 4.56443 5.63528 4.40076C5.47162 4.23709 5.24964 4.14514 5.01817 4.14514C4.78671 4.14514 4.56473 4.23709 4.40106 4.40076C4.23739 4.56443 4.14545 4.78641 4.14545 5.01787V7.63605H3.27272C3.04126 7.63605 2.81928 7.728 2.65561 7.89166C2.49194 8.05533 2.39999 8.27731 2.39999 8.50878V16.3633C2.39999 16.5948 2.49194 16.8168 2.65561 16.9804C2.81928 17.1441 3.04126 17.236 3.27272 17.236H4.14545V20.7269C4.14545 20.9584 4.23739 21.1804 4.40106 21.3441C4.56473 21.5077 4.78671 21.5997 5.01817 21.5997C5.24964 21.5997 5.47162 21.5077 5.63528 21.3441C5.79895 21.1804 5.8909 20.9584 5.8909 20.7269V17.236H6.76363C6.99509 17.236 7.21707 17.1441 7.38074 16.9804C7.54441 16.8168 7.63635 16.5948 7.63635 16.3633V8.50878C7.63635 8.27731 7.54441 8.05533 7.38074 7.89166C7.21707 7.728 6.99509 7.63605 6.76363 7.63605Z" fill="#9092B2"></path><path d="M13.7454 11.1273H12.8727V7.6364C12.8727 7.40494 12.7808 7.18296 12.6171 7.01929C12.4534 6.85562 12.2314 6.76367 12 6.76367C11.7685 6.76367 11.5465 6.85562 11.3829 7.01929C11.2192 7.18296 11.1273 7.40494 11.1273 7.6364V11.1273H10.2545C10.0231 11.1273 9.80109 11.2193 9.63742 11.3829C9.47375 11.5466 9.38181 11.7686 9.38181 12V18.1091C9.38181 18.3406 9.47375 18.5626 9.63742 18.7262C9.80109 18.8899 10.0231 18.9818 10.2545 18.9818H11.1273V20.7273C11.1273 20.9588 11.2192 21.1807 11.3829 21.3444C11.5465 21.5081 11.7685 21.6 12 21.6C12.2314 21.6 12.4534 21.5081 12.6171 21.3444C12.7808 21.1807 12.8727 20.9588 12.8727 20.7273V18.9818H13.7454C13.9769 18.9818 14.1989 18.8899 14.3625 18.7262C14.5262 18.5626 14.6182 18.3406 14.6182 18.1091V12C14.6182 11.7686 14.5262 11.5466 14.3625 11.3829C14.1989 11.2193 13.9769 11.1273 13.7454 11.1273Z" fill="#9092B2"></path><path d="M20.7272 4.14548H19.8545V3.27275C19.8545 3.04129 19.7625 2.81931 19.5989 2.65564C19.4352 2.49197 19.2132 2.40002 18.9818 2.40002C18.7503 2.40002 18.5283 2.49197 18.3647 2.65564C18.201 2.81931 18.109 3.04129 18.109 3.27275V4.14548H17.2363C17.0049 4.14548 16.7829 4.23743 16.6192 4.40109C16.4555 4.56476 16.3636 4.78674 16.3636 5.01821V14.6182C16.3636 14.8497 16.4555 15.0716 16.6192 15.2353C16.7829 15.399 17.0049 15.4909 17.2363 15.4909H18.109V16.3637C18.109 16.5951 18.201 16.8171 18.3647 16.9808C18.5283 17.1444 18.7503 17.2364 18.9818 17.2364C19.2132 17.2364 19.4352 17.1444 19.5989 16.9808C19.7625 16.8171 19.8545 16.5951 19.8545 16.3637V15.4909H20.7272C20.9587 15.4909 21.1807 15.399 21.3443 15.2353C21.508 15.0716 21.5999 14.8497 21.5999 14.6182V5.01821C21.5999 4.78674 21.508 4.56476 21.3443 4.40109C21.1807 4.23743 20.9587 4.14548 20.7272 4.14548Z" fill="#9092B2"></path></svg>