<svg xmlns="http://www.w3.org/2000/svg" viewBox="0 0 33 32" class="w-8 h-8"><circle cx="16.6667" cy="16" r="16" fill="black"></circle><g clip-path="url(#clip0_1044_3054)"><path d="M24.5843 20.2559L21.943 23.0461C21.8856 23.1067 21.8161 23.155 21.7389 23.1881C21.6617 23.2211 21.5785 23.2381 21.4943 23.2381H8.97332C8.91358 23.2381 8.85513 23.2209 8.80517 23.1886C8.75521 23.1563 8.71591 23.1104 8.6921 23.0564C8.66829 23.0024 8.661 22.9428 8.67113 22.8848C8.68126 22.8268 8.70837 22.773 8.74913 22.73L11.3924 19.9398C11.4497 19.8793 11.5189 19.8311 11.5959 19.7981C11.6728 19.7651 11.7558 19.748 11.8398 19.7478H24.3601C24.4198 19.7478 24.4782 19.765 24.5282 19.7973C24.5781 19.8295 24.6174 19.8755 24.6413 19.9295C24.6651 19.9834 24.6724 20.0431 24.6623 20.1011C24.6521 20.1591 24.625 20.2129 24.5843 20.2559ZM21.943 14.6373C21.8856 14.5767 21.8161 14.5283 21.7389 14.4953C21.6617 14.4623 21.5785 14.4453 21.4943 14.4453H8.97332C8.91358 14.4453 8.85513 14.4625 8.80517 14.4948C8.75521 14.5271 8.71591 14.573 8.6921 14.627C8.66829 14.6809 8.661 14.7406 8.67113 14.7986C8.68126 14.8566 8.70837 14.9104 8.74913 14.9534L11.3924 17.7436C11.4497 17.8041 11.5189 17.8523 11.5959 17.8853C11.6728 17.9183 11.7558 17.9354 11.8398 17.9356H24.3601C24.4198 17.9356 24.4782 17.9184 24.5282 17.8861C24.5781 17.8538 24.6174 17.8079 24.6413 17.7539C24.6651 17.6999 24.6724 17.6403 24.6623 17.5823C24.6521 17.5243 24.625 17.4705 24.5843 17.4275L21.943 14.6373ZM8.97332 12.6331H21.4943C21.5785 12.6331 21.6617 12.6161 21.7389 12.5831C21.8161 12.55 21.8856 12.5017 21.943 12.4411L24.5843 9.65092C24.625 9.6079 24.6521 9.55408 24.6623 9.49608C24.6724 9.43809 24.6651 9.37844 24.6413 9.32447C24.6174 9.2705 24.5781 9.22456 24.5282 9.19229C24.4782 9.16002 24.4198 9.14282 24.3601 9.14282H11.8398C11.7558 9.14296 11.6728 9.16007 11.5959 9.19309C11.5189 9.22611 11.4497 9.27434 11.3924 9.33479L8.74981 12.125C8.70909 12.1679 8.68199 12.2217 8.67184 12.2796C8.66168 12.3376 8.66891 12.3972 8.69264 12.4511C8.71637 12.5051 8.75557 12.551 8.80543 12.5833C8.85529 12.6156 8.91364 12.6329 8.97332 12.6331Z" fill="url(#paint0_linear_1044_3054)"></path></g><defs><linearGradient id="paint0_linear_1044_3054" x1="10.0173" y1="23.574" x2="22.9259" y2="8.80061" gradientUnits="userSpaceOnUse"><stop offset="0.08" stop-color="#9945FF"></stop><stop offset="0.3" stop-color="#8752F3"></stop><stop offset="0.5" stop-color="#5497D5"></stop><stop offset="0.6" stop-color="#43B4CA"></stop><stop offset="0.72" stop-color="#28E0B9"></stop><stop offset="0.97" stop-color="#19FB9B"></stop></linearGradient><clipPath id="clip0_1044_3054"><rect width="16" height="14.0952" fill="white" transform="translate(8.66669 9.14282)"></rect></clipPath></defs></svg>